<svg xmlns="http://www.w3.org/2000/svg" width="1024" height="1024" viewBox="-44.929999992251396 -44.96999999880791 1113.4600219726562 1113.9299926757812" class="colorable-icon reset-top-left-margin" data-export-recolorable-svg="true" overflow="visible" xmlns:xlink="http://www.w3.org/1999/xlink" fill="rgb(0, 0, 0)" stroke="none"><g fill="none" stroke="url(&quot;#theme-accent-gradient-linear&quot;) rgb(235, 71, 71)" stroke-width="45" stroke-linecap="round" stroke-linejoin="round"><path d="M 554.06,115.36 C 549.87,100.03 540.31,30.11 537.79,17.74 C 534.7,11.75 529.16,5.99 522.82,2.32 L 514.57,0.26" data-line="nan" stroke-width="45.0" fill="none" stroke="url(&quot;#theme-accent-gradient-linear&quot;) rgb(235, 71, 71)"/><path d="M 413.76,0.03 C 402.63,1.13 394.97,4.19 387.71,10.82 C 384.29,16.54 380.97,31.7 371.26,102.22 C 369.29,109.4 366.21,114.04 358.16,120.29 C 332.68,129.64 313.33,138.09 269.97,161.63" data-line="nan" stroke-width="45.0" fill="none" stroke="url(&quot;#theme-accent-gradient-linear&quot;) rgb(235, 71, 71)"/><path d="M 920.11,511.51 C 921.5,499.05 921.51,415.48 920.45,404.69 C 917.41,396.43 913.86,391.52 910.16,388.1 C 906.19,385.6 898.83,382.97 834.34,374.53" data-line="nan" stroke-width="45.0" fill="none" stroke="url(&quot;#theme-accent-gradient-linear&quot;) rgb(235, 71, 71)"/><path d="M 266.12,756.65 C 278.67,760.74 301.9,773.58 322.63,783.31 C 359.66,797.51 365.19,801.95 367.24,804.55 Q 370.11,810.27 372.13,817.96" data-line="nan" stroke-width="45.0" fill="none" stroke="url(&quot;#theme-accent-gradient-linear&quot;) rgb(235, 71, 71)"/><path d="M 380.98,882.59 C 384.17,894.31 387.66,900.61 393.94,907.23 C 403.0,911.41 415.51,913.12 473.87,913.16" data-line="nan" stroke-width="45.0" fill="none" stroke="url(&quot;#theme-accent-gradient-linear&quot;) rgb(235, 71, 71)"/><path d="M 150.71,634.33 C 135.34,608.42 128.36,594.89 122.63,580.41 C 116.66,559.75 113.22,552.31 108.78,546.9 C 104.51,544.22 97.51,542.15 83.56,540.2" data-line="nan" stroke-width="45.0" fill="none" stroke="url(&quot;#theme-accent-gradient-linear&quot;) rgb(235, 71, 71)"/><path d="M 671.26,928.42 C 660.31,923.94 652.03,921.5 644.76,920.31 C 636.14,920.26 628.12,921.76 620.58,924.46 C 602.28,934.65 592.31,938.28 582.31,939.26 C 571.86,936.63 565.16,932.56 559.72,926.64 C 532.47,884.86 526.87,875.58 524.55,870.18 C 522.84,863.42 522.61,858.7 523.85,851.28 C 526.41,844.78 532.83,836.17 553.38,818.98 C 561.65,809.51 568.36,796.59 572.28,780.54 C 572.91,771.28 572.56,751.3 570.85,741.54 C 567.15,730.58 562.12,721.54 555.6,713.28 C 536.23,697.7 530.29,691.61 525.21,682.47 C 522.77,671.52 524.32,661.7 527.97,653.49 C 553.74,613.62 560.92,603.81 566.97,598.38 C 572.03,595.56 579.65,593.26 585.44,592.69 C 590.33,593.22 597.93,595.53 624.02,609.4 C 637.92,614.23 645.87,614.77 652.09,614.1 C 661.15,611.79 672.25,607.5 682.54,601.8 C 691.35,595.25 698.6,587.94 704.38,579.89 C 707.86,572.74 710.31,565.12 712.59,543.61 C 714.58,535.19 718.28,527.17 721.96,522.2 C 727.84,517.17 735.61,513.81 743.14,512.53 C 761.7,512.11 804.91,512.5 813.04,514.44 C 820.67,518.61 826.42,524.38 831.83,533.88 C 833.75,541.14 834.54,557.07 835.7,563.79 C 838.69,572.7 842.86,580.6 849.78,589.71 C 858.73,597.98 868.11,604.24 878.82,609.34 C 888.63,612.46 898.1,614.13 904.25,614.37 C 911.67,613.22 924.03,608.65 947.78,595.02 C 957.56,592.4 962.92,592.21 970.22,593.39 C 980.15,598.11 984.72,602.11 989.59,608.26 C 1017.45,651.14 1021.53,659.57 1023.53,671.45 C 1021.86,681.14 1016.72,690.8 1010.88,696.91 C 997.93,706.76 989.94,714.14 984.22,721.18 C 978.45,731.46 975.12,741.46 973.65,749.94 C 973.13,770.25 974.01,783.05 977.61,797.2 C 980.23,803.06 985.06,810.69 992.34,818.59 C 1012.81,835.53 1017.81,840.9 1020.83,845.72 C 1023.07,852.16 1024.0,859.72 1022.91,867.79 C 1020.84,873.91 1012.95,887.73 988.15,925.29 C 980.7,932.84 973.2,936.9 962.92,938.87 C 953.28,937.56 944.83,934.29 922.95,922.56 C 914.9,920.01 907.32,919.06 896.67,920.17 C 886.44,923.08 874.12,928.38 862.31,935.35 C 855.89,940.15 848.89,946.97 840.4,959.86 C 837.17,968.11 835.44,975.16 833.42,996.23 C 831.2,1003.12 828.55,1008.22 823.85,1014.13 C 816.99,1019.55 810.55,1022.5 804.18,1023.77" data-line="nan" stroke-width="45.0" fill="none" stroke="url(&quot;#theme-accent-gradient-linear&quot;) rgb(235, 71, 71)"/><path d="M 744.82,1023.96 C 736.99,1022.91 732.0,1021.0 726.1,1017.35 C 720.42,1011.56 716.52,1005.18 714.32,999.2 C 713.03,993.04 711.92,974.56 709.47,965.85 C 705.82,958.15 700.6,950.47 690.95,940.69 Q 681.5,933.88 671.26,928.42" data-line="nan" stroke-width="45.0" fill="none" stroke="url(&quot;#theme-accent-gradient-linear&quot;) rgb(235, 71, 71)"/><path d="M 834.34,374.53 C 823.6,372.83 818.57,371.22 812.75,367.54 C 808.36,362.82 805.26,355.9 799.05,334.75 C 793.69,320.62 787.32,307.52 777.65,290.58 L 773.4,281.01" data-line="nan" stroke-width="45.0" fill="none" stroke="url(&quot;#theme-accent-gradient-linear&quot;) rgb(235, 71, 71)"/><path d="M 83.56,540.2 C 27.06,533.1 14.67,529.6 8.59,525.11 C 4.3,519.09 1.46,512.26 0.24,504.38" data-line="nan" stroke-width="45.0" fill="none" stroke="url(&quot;#theme-accent-gradient-linear&quot;) rgb(235, 71, 71)"/><path d="M 0.07,422.56 C 0.42,408.75 2.52,399.88 7.18,391.98 C 12.55,387.3 16.07,385.38 26.75,382.07 C 97.29,373.02 106.65,369.42 112.24,365.2 C 116.57,358.29 124.22,332.22 130.42,316.56 Q 135.45,306.64 150.1,281.93" data-line="nan" stroke-width="45.0" fill="none" stroke="url(&quot;#theme-accent-gradient-linear&quot;) rgb(235, 71, 71)"/><path d="M 653.25,161.5 L 554.06,115.36" data-line="1.0" stroke-width="45.0" fill="none" stroke="url(&quot;#theme-accent-gradient-linear&quot;) rgb(235, 71, 71)"/><path d="M 746.33,97.13 L 653.25,161.5" data-line="2.0" stroke-width="45.0" fill="none" stroke="url(&quot;#theme-accent-gradient-linear&quot;) rgb(235, 71, 71)"/><path d="M 837.3,190.19 L 746.33,97.13" data-line="3.0" stroke-width="45.0" fill="none" stroke="url(&quot;#theme-accent-gradient-linear&quot;) rgb(235, 71, 71)"/><path d="M 837.3,190.19 L 773.4,281.01" data-line="4.0" stroke-width="45.0" fill="none" stroke="url(&quot;#theme-accent-gradient-linear&quot;) rgb(235, 71, 71)"/><path d="M 266.12,756.65 L 177.05,816.38" data-line="7.0" stroke-width="45.0" fill="none" stroke="url(&quot;#theme-accent-gradient-linear&quot;) rgb(235, 71, 71)"/><path d="M 177.05,816.38 L 83.96,727.31" data-line="8.0" stroke-width="45.0" fill="none" stroke="url(&quot;#theme-accent-gradient-linear&quot;) rgb(235, 71, 71)"/><path d="M 150.71,634.33 L 83.96,727.31" data-line="9.0" stroke-width="45.0" fill="none" stroke="url(&quot;#theme-accent-gradient-linear&quot;) rgb(235, 71, 71)"/><path d="M 150.1,281.93 L 84.78,191.9" data-line="11.0" stroke-width="45.0" fill="none" stroke="url(&quot;#theme-accent-gradient-linear&quot;) rgb(235, 71, 71)"/><path d="M 181.03,99.9 L 84.78,191.9" data-line="12.0" stroke-width="45.0" fill="none" stroke="url(&quot;#theme-accent-gradient-linear&quot;) rgb(235, 71, 71)"/><path d="M 514.57,0.26 L 413.76,0.03" data-line="13.0" stroke-width="45.0" fill="none" stroke="url(&quot;#theme-accent-gradient-linear&quot;) rgb(235, 71, 71)"/><path d="M 269.97,161.63 L 181.03,99.9" data-line="13.0" stroke-width="45.0" fill="none" stroke="url(&quot;#theme-accent-gradient-linear&quot;) rgb(235, 71, 71)"/><path d="M 372.13,817.96 L 380.98,882.59" data-line="17.0" stroke-width="45.0" fill="none" stroke="url(&quot;#theme-accent-gradient-linear&quot;) rgb(235, 71, 71)"/><path d="M 804.18,1023.77 L 744.82,1023.96" data-line="21.0" stroke-width="45.0" fill="none" stroke="url(&quot;#theme-accent-gradient-linear&quot;) rgb(235, 71, 71)"/><path d="M 0.24,504.38 L 0.07,422.56" data-line="25.0" stroke-width="45.0" fill="none" stroke="url(&quot;#theme-accent-gradient-linear&quot;) rgb(235, 71, 71)"/><path d="M 640.9063120869945,544.8092812966916 A 199.54533350139505,199.54533350139505 0 1,0 459.8673816645582,657.4737543967526" data-line="40.0" stroke-width="45.0" fill="none" stroke="url(&quot;#theme-accent-gradient-linear&quot;) rgb(235, 71, 71)"/><circle cx="773.645103525743" cy="775.6443921447053" r="92.2747582617263" data-line="43.0" stroke-width="45.0" fill="none" stroke="url(&quot;#theme-accent-gradient-linear&quot;) rgb(235, 71, 71)"/></g></svg>