<svg xmlns="http://www.w3.org/2000/svg" width="1024" height="1024" viewBox="122.078125 -30.619999885559082 780.3170776367188 1096.3788452148438" class="colorable-icon reset-top-left-margin" data-export-recolorable-svg="true" overflow="visible" xmlns:xlink="http://www.w3.org/1999/xlink" fill="rgb(0, 0, 0)" stroke="none"><g fill="none" stroke="url(&quot;#theme-accent-gradient-linear&quot;) rgb(235, 71, 71)" stroke-width="45" stroke-linecap="round" stroke-linejoin="round"><path d="M 847.968,769.058 C 815.451,754.493 804.243,750.907 791.664,749.391 L 755.741,749.375" data-line="nan" stroke-width="45.0" fill="none" stroke="url(&quot;#theme-accent-gradient-linear&quot;) rgb(235, 71, 71)"/><path d="M 231.727,749.08 Q 216.162,751.479 177.256,766.59" data-line="nan" stroke-width="45.0" fill="none" stroke="url(&quot;#theme-accent-gradient-linear&quot;) rgb(235, 71, 71)"/><path d="M 856.347,815.043 C 855.266,804.792 847.968,769.058 843.108,738.284 L 830.405,668.876" data-line="nan" stroke-width="45.0" fill="none" stroke="url(&quot;#theme-accent-gradient-linear&quot;) rgb(235, 71, 71)"/><path d="M 788.044,435.577 C 774.301,359.14 770.197,346.17 765.059,337.523 C 761.667,333.429 753.597,326.374 749.243,323.666 Q 740.448,320.079 727.682,318.315" data-line="nan" stroke-width="45.0" fill="none" stroke="url(&quot;#theme-accent-gradient-linear&quot;) rgb(235, 71, 71)"/><path d="M 292.631,318.427 C 284.099,319.525 274.106,323.081 265.624,328.668 C 259.033,335.642 253.226,344.587 250.251,351.884 L 245.149,376.997" data-line="nan" stroke-width="45.0" fill="none" stroke="url(&quot;#theme-accent-gradient-linear&quot;) rgb(235, 71, 71)"/><path d="M 218.227,526.328 L 199.737,626.466" data-line="nan" stroke-width="45.0" fill="none" stroke="url(&quot;#theme-accent-gradient-linear&quot;) rgb(235, 71, 71)"/><path d="M 178.86,742.557 Q 177.256,766.59 171.89,788.868" data-line="nan" stroke-width="45.0" fill="none" stroke="url(&quot;#theme-accent-gradient-linear&quot;) rgb(235, 71, 71)"/><path d="M 504.173,288.644 C 498.732,317.109 482.587,358.822 467.426,389.788 C 455.709,408.893 439.967,430.144 424.201,447.753 C 406.129,465.162 386.949,480.638 364.876,495.411 C 343.814,507.435 320.937,518.263 301.327,525.524 Q 280.538,531.524 214.404,545.765" data-line="nan" stroke-width="45.0" fill="none" stroke="url(&quot;#theme-accent-gradient-linear&quot;) rgb(235, 71, 71)"/><path d="M 171.89,788.868 L 167.643,949.851" data-line="1.0" stroke-width="45.0" fill="none" stroke="url(&quot;#theme-accent-gradient-linear&quot;) rgb(235, 71, 71)"/><path d="M 512.645,14.38 L 504.173,288.644" data-line="2.0" stroke-width="45.0" fill="none" stroke="url(&quot;#theme-accent-gradient-linear&quot;) rgb(235, 71, 71)"/><path d="M 375.424,146.645 L 512.645,14.38" data-line="3.0" stroke-width="45.0" fill="none" stroke="url(&quot;#theme-accent-gradient-linear&quot;) rgb(235, 71, 71)"/><path d="M 647.805,147.781 L 512.645,14.38" data-line="4.0" stroke-width="45.0" fill="none" stroke="url(&quot;#theme-accent-gradient-linear&quot;) rgb(235, 71, 71)"/><circle cx="311.8515551990001" cy="885.9647653114097" r="45.3425721595791" data-line="8.0" stroke-width="45.0" fill="none" stroke="url(&quot;#theme-accent-gradient-linear&quot;) rgb(235, 71, 71)"/><path d="M 566.659,882.957 L 755.976,882.829" data-line="10.0" stroke-width="45.0" fill="none" stroke="url(&quot;#theme-accent-gradient-linear&quot;) rgb(235, 71, 71)"/><path d="M 755.741,749.375 L 231.727,749.08" data-line="10.0" stroke-width="45.0" fill="none" stroke="url(&quot;#theme-accent-gradient-linear&quot;) rgb(235, 71, 71)"/><path d="M 167.07885038577388,949.8484148141571 A 70.5869657831176,70.5869657831176 0 0,0 256.776478336586,1018.1223986084867" data-line="11.0" stroke-width="45.0" fill="none" stroke="url(&quot;#theme-accent-gradient-linear&quot;) rgb(235, 71, 71)"/><path d="M 257.304,1019.998 L 776.946,1019.97" data-line="12.0" stroke-width="45.0" fill="none" stroke="url(&quot;#theme-accent-gradient-linear&quot;) rgb(235, 71, 71)"/><path d="M 856.492,930.06 L 856.347,815.043" data-line="12.0" stroke-width="45.0" fill="none" stroke="url(&quot;#theme-accent-gradient-linear&quot;) rgb(235, 71, 71)"/><path d="M 777.0585667310997,1019.2167672832807 A 69.99163991995754,69.99163991995754 0 0,0 854.6520216851343,930.5908830398575" data-line="13.0" stroke-width="45.0" fill="none" stroke="url(&quot;#theme-accent-gradient-linear&quot;) rgb(235, 71, 71)"/><path d="M 830.405,668.876 L 788.044,435.577" data-line="14.0" stroke-width="45.0" fill="none" stroke="url(&quot;#theme-accent-gradient-linear&quot;) rgb(235, 71, 71)"/><path d="M 727.682,318.315 L 292.631,318.427" data-line="16.0" stroke-width="45.0" fill="none" stroke="url(&quot;#theme-accent-gradient-linear&quot;) rgb(235, 71, 71)"/><path d="M 245.149,376.997 L 218.227,526.328" data-line="18.0" stroke-width="45.0" fill="none" stroke="url(&quot;#theme-accent-gradient-linear&quot;) rgb(235, 71, 71)"/><path d="M 199.737,626.466 L 178.86,742.557" data-line="20.0" stroke-width="45.0" fill="none" stroke="url(&quot;#theme-accent-gradient-linear&quot;) rgb(235, 71, 71)"/></g></svg>